PathFileType	4	(X/Y/Z)	TVC_41_BWA_06_walk_RCNL2025.trc
DataRate	CameraRate	NumFrames	NumMarkers	Units	OrigDataRate	OrigDataStartFrame	OrigNumFrames
100	100	6	27	mm	100	434	867
Frame#	Time	R_Shoulder			L_Shoulder			C7			J_Notch			R_Elbow			L_Elbow			R_Wrist			L_Wrist			R_Asis			L_Asis			R_Psis			L_Psis			Sacral			Thoracic			Sternum			R_Thigh_Lateral			R_Knee_Lateral			R_Shank_Lateral			R_Ankle_Lateral			R_Heel			R_Toe			L_Thigh_Lateral			L_Knee_Lateral			L_Shank_Lateral			L_Ankle_Lateral			L_Heel			L_Toe		
		X1	Y1	Z1	X2	Y2	Z2	X3	Y3	Z3	X4	Y4	Z4	X5	Y5	Z5	X6	Y6	Z6	X7	Y7	Z7	X8	Y8	Z8	X9	Y9	Z9	X10	Y10	Z10	X11	Y11	Z11	X12	Y12	Z12	X13	Y13	Z13	X14	Y14	Z14	X15	Y15	Z15	X16	Y16	Z16	X17	Y17	Z17	X18	Y18	Z18	X19	Y19	Z19	X20	Y20	Z20	X21	Y21	Z21	X22	Y22	Z22	X23	Y23	Z23	X24	Y24	Z24	X25	Y25	Z25	X26	Y26	Z26	X27	Y27	Z27
434	4.33000000	-840.542114	1228.828369	492.699982	-802.065125	1235.624512	155.956192	-871.289368	1296.855835	321.165131	-754.758667	1181.333862	337.447723	-970.739929	959.723877	504.570618	-867.306213	949.268311	92.381470	-781.696381	877.311401	503.455200	-778.110626	761.772186	76.015442	-842.169128	848.163879	447.826477	-815.021240	822.561829	208.370270	-996.015625	883.832642	355.996979	-992.664307	864.203979	266.693512	-994.339966	874.018311	311.345245	-936.541077	1009.602417	300.866821	-743.391113	998.079041	325.340149	-906.586121	629.582214	525.727966	-903.892639	402.784637	424.140839	-932.188171	269.647980	479.812897	-934.604309	67.901237	386.996429	-978.749695	41.363361	341.764954	-819.860962	41.871830	380.311432	-830.306274	576.003906	97.675323	-726.343384	402.596191	173.342209	-815.963196	300.579895	112.454643	-951.254211	139.068863	173.485626	-998.835205	141.209732	215.317490	-860.245483	59.955410	186.149307
435	4.34000000	-838.404419	1228.534424	492.525635	-799.312805	1235.157349	155.853195	-868.794128	1296.523682	320.929962	-752.441589	1180.786621	337.469788	-969.121826	959.758545	504.173492	-864.712708	948.855530	92.227898	-780.232605	877.138977	503.313232	-776.012451	761.097656	76.071980	-840.531860	848.058960	447.912689	-813.199890	822.098816	208.511368	-994.250916	883.862366	355.925385	-990.889893	864.094421	266.659210	-992.570404	873.978394	311.292297	-934.466003	1009.418884	300.631592	-741.417664	997.537415	325.433167	-905.522278	629.589966	525.842163	-903.156677	402.715027	424.269318	-931.789978	269.642059	479.830994	-934.631409	67.916801	387.007202	-978.676331	41.351723	341.834534	-819.893799	41.875122	380.362030	-829.787354	575.311157	97.866463	-720.863281	404.657135	172.695572	-808.137390	300.570709	112.213326	-937.308289	134.289154	174.105270	-984.765991	134.183029	216.485184	-842.738037	59.430603	185.451492
436	4.35000000	-836.287964	1228.277710	492.233978	-796.558472	1234.677368	155.641434	-866.311584	1296.188599	320.572113	-750.130249	1180.263550	337.383881	-967.480713	959.829346	503.727661	-862.093506	948.423462	91.978020	-778.728210	877.038757	503.133530	-773.925598	760.391724	75.987696	-838.850342	847.961609	447.953613	-811.321655	821.634644	208.603333	-992.437988	883.874878	355.808441	-989.066589	863.973083	266.579346	-990.752289	873.923981	311.193893	-932.363647	1009.219604	300.320282	-739.415527	997.014709	325.454468	-904.416443	629.593811	525.912354	-902.390747	402.647095	424.359192	-931.377380	269.625336	479.818207	-934.646301	67.932640	387.013794	-978.588928	41.336514	341.904633	-819.918823	41.878620	380.404572	-829.344421	574.533691	97.994667	-715.663635	406.598022	172.075104	-800.148438	300.286102	111.964020	-922.923889	129.285172	174.553452	-970.230652	126.976082	217.376083	-825.015503	58.763294	184.889786
437	4.36000000	-834.190796	1228.057983	491.826233	-793.800171	1234.184692	155.322037	-863.838989	1295.851685	320.092743	-747.822693	1179.766846	337.190247	-965.810730	959.930237	503.239929	-859.447266	947.971436	91.635323	-777.178955	876.996735	502.925751	-771.841858	759.656494	75.768681	-837.123291	847.870667	447.946075	-809.381409	821.167725	208.645142	-990.575317	883.867859	355.638794	-987.189209	863.836365	266.446625	-988.882263	873.852112	311.042709	-930.231506	1009.004883	299.931915	-737.382019	996.511658	325.404694	-903.260620	629.594238	525.938171	-901.594299	402.581055	424.410034	-930.949158	269.597473	479.775177	-934.648804	67.947556	387.016541	-978.488770	41.317806	341.974976	-819.936218	41.881256	380.437958	-828.874207	573.715271	98.026581	-710.728760	408.396362	171.483231	-792.023193	299.754395	111.703133	-908.200806	124.177231	174.839264	-955.321533	119.735542	218.009796	-807.210999	58.022770	184.469421
438	4.37000000	-832.111328	1227.874390	491.303833	-791.036438	1233.679565	154.896271	-861.373901	1295.514038	319.493439	-745.517029	1179.299194	336.889618	-964.106873	960.054199	502.714813	-856.772705	947.498901	91.203270	-775.580658	876.998566	502.699509	-769.753052	758.894501	75.421936	-835.349182	847.785400	447.886780	-807.374084	820.696472	208.635651	-988.661316	883.838745	355.408661	-985.252258	863.681030	266.253357	-986.956787	873.759888	310.831009	-928.067200	1008.775024	299.465240	-735.314941	996.029236	325.284210	-902.046692	629.592407	525.919006	-900.766235	402.517059	424.421326	-930.501648	269.559875	479.703613	-934.638733	67.960167	387.015930	-978.377319	41.295776	342.044922	-819.947021	41.882095	380.461487	-828.283386	572.896484	97.934517	-706.044800	410.031921	170.922134	-783.804810	299.010040	111.426636	-893.257080	119.077126	174.978302	-940.151611	112.592781	218.413193	-789.459106	57.273155	184.191528
439	4.38000000	-830.048279	1227.726074	490.668365	-788.265625	1233.163086	154.365555	-858.914246	1295.177124	318.775848	-743.211487	1178.862671	336.483002	-962.364990	960.193909	502.154175	-854.068481	947.005981	90.685257	-773.928589	877.030853	502.462906	-767.651398	758.108643	74.955143	-833.526367	847.705566	447.772308	-805.294739	820.219604	208.573608	-986.694641	883.785278	355.109985	-983.250122	863.504028	265.991638	-984.972382	873.644653	310.550812	-925.868469	1008.530701	298.919006	-733.212158	995.568665	325.093292	-900.767273	629.590088	525.853455	-899.905212	402.454956	424.392242	-930.029480	269.515686	479.606171	-934.615356	67.968880	387.012573	-978.255676	41.270645	342.113495	-819.953125	41.880398	380.474701	-827.493774	572.112671	97.698990	-701.599792	411.486908	170.394165	-775.548706	298.089600	111.131165	-878.225830	114.083275	174.991455	-924.852295	105.660614	218.617172	-771.897156	56.568615	184.052399
